<svg width="1920" height="1080" viewBox="0 0 1920 1080" xmlns="http://www.w3.org/2000/svg"><rect width="1920" height="1080" fill="#ededed"/><path d="M 0,1080 C 0,1080 0,216 0,216 C 8.574933574132537,223.29102499780737 17.149867148265074,230.5820499956147 71,236 C 124.85013285173493,241.4179500043853 223.97546498107226,244.96282501534847 247,221 C 270.02453501892774,197.03717498465153 216.94827292744588,145.56664994299152 242,164 C 267.0517270725541,182.43335005700848 370.23144330914425,270.7705752126855 355,285 C 339.76855669085575,299.2294247873145 206.12595383597719,239.35104920626648 219,211 C 231.87404616402281,182.64895079373352 391.26474134694695,185.82522796224856 445,182 C 498.73525865305305,178.17477203775144 446.81508077623516,167.34803894473933 472,169 C 497.18491922376484,170.65196105526067 599.4749355481124,184.7826162587941 592,184 C 584.5250644518876,183.2173837412059 467.2851770313149,167.5214960200842 469,162 C 470.7148229686851,156.4785039799158 591.384356326628,161.13139966086922 618,179 C 644.615643673372,196.86860033913078 577.1773976621731,227.95290533643896 591,242 C 604.8226023378269,256.04709466356104 699.9060530246794,253.05697899337505 770,226 C 840.0939469753206,198.94302100662495 885.1983902391095,147.8191786900609 919,147 C 952.8016097608905,146.1808213099391 975.3003860188834,195.66630624638145 974,211 C 972.6996139811166,226.33369375361855 947.6000656853572,207.5155963244132 928,207 C 908.3999343146428,206.4844036755868 894.2993512396885,224.27130845596574 956,217 C 1017.7006487603115,209.72869154403426 1155.2025293558888,177.39916985172374 1163,177 C 1170.7974706441112,176.60083014827626 1048.890531336756,208.13201213713924 1070,207 C 1091.109468663244,205.86798786286076 1255.2353452970865,172.07278159971932 1287,155 C 1318.7646547029135,137.92721840028068 1218.1680874748984,137.57686146398336 1187,161 C 1155.8319125251016,184.42313853601664 1194.09230480332,231.6197725443471 1273,251 C 1351.90769519668,270.3802274556529 1471.4626933118204,261.94404835862815 1508,259 C 1544.5373066881796,256.05595164137185 1498.0569219493968,258.6040340211403 1517,250 C 1535.9430780506032,241.3959659788597 1620.309618890592,221.63981555681067 1612,235 C 1603.690381109408,248.36018444318933 1502.7046024882352,294.83670375161694 1503,272 C 1503.2953975117648,249.16329624838303 1604.8719711564672,157.01336943672143 1643,141 C 1681.1280288435328,124.98663056327857 1655.8075128858952,185.10981850149733 1693,190 C 1730.1924871141048,194.89018149850267 1829.8979772999512,144.54735655728916 1843,135 C 1856.1020227000488,125.45264344271082 1782.6005779142995,156.70075526934593 1781,177 C 1779.3994220857005,197.29924473065407 1849.6997110428501,206.64962236532705 1920,216 C 1920,216 1920,1080 1920,1080 Z" fill="#62e4b2" opacity="0.12"/><path d="M 0,1080 C 0,1080 0,432 0,432 C -3.5744454999102757,396.98074456843415 -7.148890999820551,361.9614891368683 32,356 C 71.14889099982055,350.0385108631317 153.0211184993719,373.134788020961 185,408 C 216.9788815006281,442.865211979039 199.06441700233293,489.49935877928766 183,471 C 166.93558299766707,452.50064122071234 152.72121349129628,368.86777686188833 163,366 C 173.27878650870372,363.13222313811167 208.05072903248197,441.0295337731591 270,483 C 331.94927096751803,524.9704662268409 421.0758703787757,531.0140880454753 476,497 C 530.9241296212243,462.9859119545246 551.645789452415,388.9141140449394 536,385 C 520.354210547585,381.0858859550606 468.34097181156426,447.329455774767 465,472 C 461.65902818843574,496.670544225233 506.99032330132775,479.76806285599287 559,484 C 611.0096766986723,488.23193714400713 669.6977349831245,513.5982928012617 710,487 C 750.3022650168755,460.40170719873834 772.2187367661741,381.83876593896036 811,351 C 849.7812632338259,320.16123406103964 905.4273179521791,337.04664344289705 882,354 C 858.5726820478209,370.95335655710295 756.0719914251097,387.97466028945166 730,399 C 703.9280085748903,410.02533971054834 754.2847163473822,415.0547153992964 790,401 C 825.7152836526178,386.9452846007036 846.7891431853611,353.8064781133625 874,353 C 901.2108568146389,352.1935218866375 934.5587109111736,383.7193721472536 980,407 C 1025.4412890888264,430.2806278527464 1082.9760131699443,445.31603329762294 1087,465 C 1091.0239868300557,484.68396670237706 1041.5372364090488,509.01649466225473 1061,480 C 1080.4627635909512,450.98350533774527 1168.8750411938602,368.61798805335803 1224,364 C 1279.1249588061398,359.38201194664197 1300.9625988155103,432.5115531243132 1292,436 C 1283.0374011844897,439.4884468756868 1243.2745635440976,373.3357994493889 1261,385 C 1278.7254364559024,396.6642005506111 1353.9391470080982,486.1452490781313 1393,503 C 1432.0608529919018,519.8547509218687 1434.9688484235091,464.08320423808584 1452,431 C 1469.0311515764909,397.91679576191416 1500.1854592978655,387.5219339695252 1539,405 C 1577.8145407021345,422.4780660304748 1624.2893143850276,467.82905988381333 1641,482 C 1657.7106856149724,496.17094011618667 1644.657283162023,479.1618264952213 1621,454 C 1597.342716837977,428.8381735047787 1563.08155296688,395.52363413530145 1616,388 C 1668.91844703312,380.47636586469855 1809.0165049704553,398.74363696357267 1830,409 C 1850.9834950295447,419.25636303642733 1752.8524271512983,421.5018180104078 1748,424 C 1743.1475728487017,426.4981819895922 1831.5737864243508,429.2490909947961 1920,432 C 1920,432 1920,1080 1920,1080 Z" fill="#62e4b2" opacity="0.24"/><path d="M 0,1080 C 0,1080 0,648 0,648 C 69.97009648896281,624.4969334332247 139.94019297792562,600.9938668664496 152,617 C 164.05980702207438,633.0061331335504 118.20932457726033,688.5214659674264 133,717 C 147.79067542273967,745.4785340325736 223.222508713033,746.920269263845 242,727 C 260.777491286967,707.079730736155 222.90064057060766,665.7974569771941 247,643 C 271.09935942939234,620.2025430228059 357.17492900453635,615.8899028273788 359,629 C 360.82507099546365,642.1100971726212 278.3996434112468,672.6429317132907 271,688 C 263.6003565887532,703.3570682867093 331.22649735047634,703.5383703194578 364,704 C 396.77350264952366,704.4616296805422 394.69436718684784,705.2035870088782 439,705 C 483.30563281315216,704.7964129911218 573.9960339021325,703.6472816450294 609,712 C 644.0039660978675,720.3527183549706 623.3214972046226,738.2072864110047 607,709 C 590.6785027953774,679.7927135889953 578.7179772793776,603.5235727109522 586,593 C 593.2820227206224,582.4764272890478 619.8065936778677,637.6984227451868 682,657 C 744.1934063221323,676.3015772548132 842.0556480091519,659.6827363083006 884,658 C 925.9443519908481,656.3172636916994 911.970814285524,669.5706320216108 920,654 C 928.029185714476,638.4293679783892 958.0610948487518,594.0347356052563 979,595 C 999.9389051512482,595.9652643947437 1011.7848063194685,642.2904255573644 1028,651 C 1044.2151936805315,659.7095744426356 1064.7996798733736,630.8035621652862 1087,638 C 1109.2003201266264,645.1964378347138 1133.0164741870367,688.4953257814908 1119,676 C 1104.9835258129633,663.5046742185092 1053.1344233784803,595.2151347087502 1114,598 C 1174.8655766215197,600.7848652912498 1348.4458322990424,674.6441353835082 1394,695 C 1439.5541677009576,715.3558646164918 1357.082247425349,682.208323757217 1311,676 C 1264.917752574651,669.791676242783 1255.2251779995615,690.5225695876234 1318,707 C 1380.7748220004385,723.4774304123766 1516.017040576405,735.7013978922889 1565,720 C 1613.982959423595,704.2986021077111 1576.706659694819,660.6718388432205 1559,635 C 1541.293340305181,609.3281611567795 1543.1563206443193,601.6112467348291 1561,629 C 1578.8436793556807,656.3887532651709 1612.6680577279035,718.8831742174629 1660,727 C 1707.3319422720965,735.1168257825371 1768.171448444067,688.8560563953191 1800,685 C 1831.828551555933,681.1439436046809 1834.6461484958284,719.6926002012602 1859,719 C 1883.3538515041716,718.3073997987398 1929.2439575726205,678.37354279964 1943,660 C 1956.7560424273795,641.62645720036 1938.3780212136899,644.8132286001801 1920,648 C 1920,648 1920,1080 1920,1080 Z" fill="#62e4b2" opacity="0.36"/><path d="M 0,1080 C 0,1080 0,864 0,864 C 18.085977122425877,841.3958462940941 36.171954244851754,818.7916925881881 47,838 C 57.828045755148246,857.2083074118119 61.398160143018856,918.2290759413419 95,922 C 128.60183985698114,925.7709240586581 192.23540518307274,872.2920036464444 217,845 C 241.76459481692726,817.7079963535556 227.66021912469012,816.6029094728807 273,816 C 318.3397808753099,815.3970905271193 423.1237183181671,815.2963584620329 433,842 C 442.8762816818329,868.7036415379671 357.8449076026415,922.211656678988 320,939 C 282.1550923973585,955.788343321012 291.4966512712667,935.8570148220145 363,912 C 434.5033487287333,888.1429851779855 568.1684873122915,860.360284032953 607,866 C 645.8315126877085,871.639715967047 589.829399479567,910.7018490461732 622,909 C 654.170600520433,907.2981509538268 774.5139147694406,864.8323197823541 758,865 C 741.4860852305594,865.1676802176459 588.1149414426707,907.9688718244101 609,937 C 629.8850585573293,966.0311281755899 825.0263194598768,981.2921929200047 881,936 C 936.9736805401232,890.7078070799953 853.7797807178222,784.862356495571 847,791 C 840.2202192821778,797.137643504429 909.8545576688341,915.258381097711 934,941 C 958.1454423311659,966.741618902289 936.8019886068403,900.1041191135853 971,886 C 1005.1980113931597,871.8958808864147 1094.9374879038048,910.3251424479474 1085,891 C 1075.0625120961952,871.6748575520526 965.4480597779396,794.5953110946247 970,806 C 974.5519402220604,817.4046889053753 1093.2702729844361,917.2936131735537 1151,913 C 1208.7297270155639,908.7063868264463 1205.4708482843164,800.2302362111607 1245,791 C 1284.5291517156836,781.7697637888393 1366.8463338782979,871.7854419818035 1396,903 C 1425.1536661217021,934.2145580181965 1401.1438162024924,906.6279958616255 1394,872 C 1386.8561837975076,837.3720041383745 1396.5784013117323,795.7025745716941 1407,816 C 1417.4215986882677,836.2974254283059 1428.542578550579,918.5617058515979 1437,931 C 1445.457421449421,943.4382941484021 1451.2512844859514,886.050602021914 1485,875 C 1518.7487155140486,863.949397978086 1580.4522835056148,899.2358860607454 1637,902 C 1693.5477164943852,904.7641139392546 1744.9395814915895,875.0058537351041 1768,878 C 1791.0604185084105,880.9941462648959 1785.7893905280278,916.7406989988381 1808,898 C 1830.2106094719722,879.2593010011619 1879.9028563963004,806.0313502695436 1876,809 C 1872.0971436036996,811.9686497304564 1814.5991838867715,891.1338999229876 1813,913 C 1811.4008161132285,934.8661000770124 1865.7004080566144,899.4330500385063 1920,864 C 1920,864 1920,1080 1920,1080 Z" fill="#62e4b2" opacity="0.48"/></svg>